<?xml version="1.0" standalone="no"?>
<!DOCTYPE svg PUBLIC "-//W3C//DTD SVG 1.1//EN" "http://www.w3.org/Graphics/SVG/1.1/DTD/svg11.dtd" >
<svg xmlns="http://www.w3.org/2000/svg" xmlns:xlink="http://www.w3.org/1999/xlink" version="1.1">
<metadata></metadata>
<defs>
<font id="geistregular" horiz-adv-x="1173" >
<font-face units-per-em="2048" ascent="1638" descent="-410" />
<missing-glyph horiz-adv-x="512" />
<glyph unicode="&#xfb01;" horiz-adv-x="1275" d="M123 934v151h592v-151h-592zM270 0v1184q0 121 70 195.5t217 74.5h172v-151h-160q-63 0 -95 -35t-32 -97v-1171h-172zM936 1255v201h180v-201h-180zM940 0v1085h172v-1085h-172z" />
<glyph unicode="&#xfb02;" horiz-adv-x="1314" d="M123 934v151h592v-151h-592zM270 0v1184q0 121 70 195.5t217 74.5h172v-151h-160q-63 0 -95 -35t-32 -97v-1171h-172zM932 205v1249h172v-1235q0 -33 17.5 -50t49.5 -17h95v-152h-121q-94 0 -153.5 49t-59.5 156z" />
<glyph horiz-adv-x="0" />
<glyph horiz-adv-x="682" />
<glyph unicode=" "  horiz-adv-x="512" />
<glyph unicode="&#x09;" horiz-adv-x="512" />
<glyph unicode="&#xa0;" horiz-adv-x="512" />
<glyph unicode="!" horiz-adv-x="436" d="M102 0v231h232v-231h-232zM137 983v471h176v-471q0 -82 -5 -186.5t-12 -204.5t-13 -172h-113q-6 72 -13 172t-13.5 204.5t-6.5 186.5z" />
<glyph unicode="&#x22;" horiz-adv-x="708" d="M92 1290v164h180l-12 -545h-127zM436 1454h180v-164l-41 -381h-126z" />
<glyph unicode="#" horiz-adv-x="978" d="M-20 403l24 144h903l-24 -144h-903zM61 901l25 143h903l-24 -143h-904zM74 0l270 1454h148l-271 -1454h-147zM479 0l271 1454h147l-270 -1454h-148z" />
<glyph unicode="$" horiz-adv-x="1288" d="M113 455l180 12q14 -106 62 -180t129 -112t196 -38q100 0 171 25.5t107.5 76t36.5 121.5q0 68 -30.5 119t-118.5 94t-258 84q-164 43 -262.5 93.5t-140.5 123t-42 179.5q0 119 57.5 210t163 142t252.5 51q156 0 268.5 -58.5t179 -160.5t83.5 -233l-182 -13 q-10 86 -53.5 153.5t-118 105.5t-181.5 38q-133 0 -210.5 -63.5t-77.5 -165.5q0 -66 30.5 -110t111.5 -76.5t230 -69.5q178 -45 283.5 -105.5t151 -141.5t45.5 -183q0 -123 -64.5 -214t-177.5 -141.5t-258 -50.5q-164 0 -286 62.5t-193.5 172t-83.5 253.5zM584 -184v1822 h151v-1822h-151z" />
<glyph unicode="%" horiz-adv-x="1642" d="M90 1110q0 176 89 268t227 92q139 0 227 -92t88 -268q0 -174 -88 -267t-227 -93q-137 0 -226.5 93t-89.5 267zM238 0l1003 1454h164l-1004 -1454h-163zM238 1110q0 -111 43 -172t125 -61q84 0 125.5 61t41.5 172t-42 172t-125 61q-82 0 -125 -61t-43 -172zM922 344 q0 176 89 268.5t226 92.5q139 0 227 -92.5t88 -268.5q0 -174 -88 -267t-227 -93q-137 0 -226 93t-89 267zM1069 344q0 -111 43 -172t125 -61q84 0 126 61t42 172t-42 172.5t-126 61.5q-82 0 -125 -61.5t-43 -172.5z" />
<glyph unicode="&#x26;" horiz-adv-x="1269" d="M82 356q0 94 26.5 167t89 140.5t171.5 143.5q-47 61 -80 115.5t-50.5 109.5t-17.5 119q0 158 95.5 247t261.5 89q109 0 184.5 -38t115.5 -107.5t40 -165.5q0 -117 -70 -210.5t-234 -201.5l332 -424q74 102 74 311l172 -16q-2 -123 -40 -237.5t-97 -186.5l174 -211h-207 l-76 92q-59 -57 -163 -91t-251 -34q-209 0 -329.5 101.5t-120.5 287.5zM266 356q0 -102 68.5 -163.5t218.5 -61.5q104 0 174 24.5t104 61.5l-360 455q-111 -76 -158 -147.5t-47 -168.5zM406 1151q0 -41 10 -81t35.5 -83t68.5 -98q78 49 125 91t67.5 87t20.5 96q0 74 -41 113 t-114 39q-82 0 -127 -43t-45 -121z" />
<glyph unicode="'" horiz-adv-x="364" d="M92 1290v164h180v-164l-32 -381h-115z" />
<glyph unicode="(" horiz-adv-x="561" d="M92 655q0 455 285 881h153q-260 -442 -260 -881q0 -219 65.5 -439t194.5 -441h-153q-285 428 -285 880z" />
<glyph unicode=")" horiz-adv-x="561" d="M31 -225q129 221 194.5 441t65.5 439q0 438 -260 881h153q285 -426 285 -881q0 -452 -285 -880h-153z" />
<glyph unicode="*" horiz-adv-x="880" d="M90 1061v131h246l-137 209l106 69l135 -219l138 219l106 -69l-139 -209h246v-131h-246l139 -209l-106 -70l-138 217l-135 -217l-106 70l137 209h-246z" />
<glyph unicode="+" horiz-adv-x="1142" d="M82 524v160h979v-160h-979zM492 115v979h159v-979h-159z" />
<glyph unicode="," horiz-adv-x="411" d="M90 0v231h232v-202l-123 -348h-103l99 319h-105z" />
<glyph unicode="-" horiz-adv-x="858" d="M90 516v162h678v-162h-678z" />
<glyph unicode="." horiz-adv-x="411" d="M90 0v231h232v-231h-232z" />
<glyph unicode="/" horiz-adv-x="983" d="M82 -225l604 1761h164l-604 -1761h-164z" />
<glyph unicode="0" horiz-adv-x="1357" d="M102 725q0 233 71 404t200 264.5t305 93.5q178 0 307 -93.5t199.5 -263t70.5 -405.5q0 -233 -70.5 -403t-199.5 -262.5t-307 -92.5q-176 0 -305 92.5t-200 262.5t-71 403zM287 725q0 -281 102.5 -433.5t288.5 -152.5q188 0 290.5 152.5t102.5 433.5q0 188 -46 320.5 t-133 201t-214 68.5q-125 0 -212 -68.5t-133 -201t-46 -320.5z" />
<glyph unicode="1" horiz-adv-x="786" d="M82 1077v152h123q80 0 128 20.5t68.5 69.5t20.5 135h139v-1454h-176v1077h-303z" />
<glyph unicode="2" horiz-adv-x="1267" d="M123 0q0 154 48 277.5t170 236.5t339 227q100 53 161.5 98.5t90.5 96.5t29 125q0 76 -33 132t-97.5 89t-160.5 33q-154 0 -243 -80t-112 -227l-184 12q25 213 164 340t375 127q150 0 256 -53.5t162.5 -148.5t56.5 -220q0 -111 -37 -191.5t-124 -150.5t-239 -150 q-197 -104 -298 -210.5t-107 -190.5h805v-172h-1022z" />
<glyph unicode="3" horiz-adv-x="1255" d="M102 375l183 12q12 -133 103 -190.5t228 -57.5q94 0 174 25.5t129.5 84t49.5 157.5q0 145 -96.5 212.5t-254.5 67.5h-114v172h114q129 0 214.5 51.5t85.5 175.5q0 113 -73 171.5t-218 58.5q-143 0 -216 -55.5t-87 -151.5l-185 12q20 164 145.5 265.5t342.5 101.5 q147 0 253.5 -48t164 -136.5t57.5 -208.5q0 -135 -85 -218t-251 -114v37q178 -20 282.5 -127t104.5 -266q0 -139 -68.5 -237.5t-189.5 -150t-279 -51.5q-242 0 -372.5 114t-141.5 294z" />
<glyph unicode="4" horiz-adv-x="1259" d="M61 315v160l727 979h189v-967h180v-172h-180v-315h-176v315h-740zM274 487h527v697z" />
<glyph unicode="5" horiz-adv-x="1282" d="M123 375l184 12q16 -123 105.5 -185.5t226.5 -62.5q154 0 244 87t90 241q0 102 -40 177t-116 116t-182 41q-100 0 -182 -43t-117 -121h-189l97 817h815v-172h-653l-66 -537l-33 33q33 63 87.5 105.5t125 64t148.5 21.5q145 0 255.5 -64.5t172 -178.5t61.5 -259 t-65.5 -259t-182 -177.5t-270.5 -63.5t-265.5 51.5t-176 143.5t-74.5 213z" />
<glyph unicode="6" horiz-adv-x="1277" d="M123 614q0 180 29.5 338t96 278t176.5 188.5t271 68.5q195 0 301.5 -95.5t149.5 -248.5l-184 -17q-25 86 -85.5 137.5t-181.5 51.5q-180 0 -283.5 -153.5t-109.5 -465.5l-37 9q23 74 79 136t139 100t188 38q143 0 251.5 -61.5t169 -173t60.5 -261.5q0 -160 -65.5 -275.5 t-181 -178t-267.5 -62.5q-164 0 -279.5 75t-176 220.5t-60.5 351.5zM315 483q0 -100 40 -178t114 -122t174 -44q143 0 234.5 91.5t91.5 252.5q0 100 -39 174t-108.5 114t-162.5 40q-98 0 -175.5 -40t-123 -113.5t-45.5 -174.5z" />
<glyph unicode="7" horiz-adv-x="1073" d="M41 1282v172h1032v-160q-182 -209 -300 -412.5t-173 -419.5t-55 -462h-180q0 225 61 449.5t177 435.5t278 397h-840z" />
<glyph unicode="8" horiz-adv-x="1236" d="M82 399q0 158 94 261.5t250 140.5l4 -41q-125 35 -201.5 113.5t-76.5 213.5q0 115 58 205t162.5 142.5t245.5 52.5t247 -52.5t163 -142.5t57 -205q0 -135 -75.5 -213.5t-202.5 -113.5l4 41q158 -37 251 -140.5t93 -261.5q0 -141 -68.5 -237t-189.5 -145.5t-279 -49.5 q-156 0 -277.5 49.5t-190 145.5t-68.5 237zM266 410q0 -137 95 -204t257 -67t257.5 66.5t95.5 204.5q0 127 -85 203.5t-268 76.5q-180 0 -266 -76.5t-86 -203.5zM336 1087q0 -117 73.5 -175t208.5 -58t209 58.5t74 174.5q0 104 -71.5 166t-211.5 62q-137 0 -209.5 -61.5 t-72.5 -166.5z" />
<glyph unicode="9" horiz-adv-x="1277" d="M123 971q0 160 65.5 275.5t179 178t261.5 62.5q182 0 297.5 -84t171 -234.5t55.5 -355.5q0 -182 -28.5 -336.5t-94 -268.5t-173 -177.5t-267.5 -63.5q-180 0 -294 89t-155 225l187 14q25 -74 90 -115t172 -41q182 0 279.5 146.5t99.5 472.5l43 -8q-51 -137 -157.5 -212 t-248.5 -75q-141 0 -249.5 63.5t-171 178t-62.5 266.5zM307 971q0 -102 40 -177t109.5 -116t161.5 -41q100 0 176 39t120 112.5t44 178.5q0 100 -39.5 179t-113.5 124t-176 45q-100 0 -172 -44t-111 -122t-39 -178z" />
<glyph unicode=":" horiz-adv-x="608" d="M188 0v231h232v-231h-232zM188 805v231h232v-231h-232z" />
<glyph unicode=";" horiz-adv-x="608" d="M188 0v231h232v-202l-123 -348h-103l99 319h-105zM188 805v231h232v-231h-232z" />
<glyph unicode="&#x3c;" horiz-adv-x="1114" d="M82 483v217l930 418v-172l-815 -364v20l815 -364v-172z" />
<glyph unicode="=" horiz-adv-x="1105" d="M82 322v159h942v-159h-942zM82 743v160h942v-160h-942z" />
<glyph unicode="&#x3e;" horiz-adv-x="1114" d="M102 66v172l816 364v-20l-816 364v172l930 -418v-217z" />
<glyph unicode="?" horiz-adv-x="1144" d="M90 1024q12 135 77.5 239.5t176.5 164t260 59.5q133 0 234.5 -53.5t159 -147.5t57.5 -217q0 -86 -28 -149.5t-85 -116.5t-145 -111q-82 -53 -112 -112.5t-30 -167.5h-176q0 147 46 234t153 153q80 49 122 87t56 80t14 103q0 106 -70.5 176t-195.5 70q-152 0 -232.5 -78 t-97.5 -225zM446 0v231h232v-231h-232z" />
<glyph unicode="@" horiz-adv-x="1855" d="M92 512q0 209 65.5 381t187.5 298t288 194.5t366 68.5q231 0 403.5 -90t266.5 -254t94 -387q0 -164 -49 -289t-135 -195.5t-199 -70.5q-94 0 -154.5 55.5t-66.5 149.5l31 8q-25 -59 -78 -110.5t-120.5 -81t-139.5 -29.5q-121 0 -204 47t-126 131t-43 194q0 137 54.5 250 t151.5 179.5t228 66.5q109 0 186 -48t97 -126l-20 -20l14 190h149l-32 -430q-2 -45 -7.5 -102.5t-5.5 -94.5q0 -45 24.5 -69.5t74.5 -24.5q104 0 163.5 110.5t59.5 303.5q0 190 -71.5 323.5t-210 202t-339.5 68.5q-168 0 -307 -57.5t-239.5 -163t-154.5 -251t-54 -323.5 q0 -190 70.5 -324.5t205.5 -204t328 -69.5q111 0 218 21.5t198 60.5l34 -139q-102 -43 -214.5 -64.5t-239.5 -21.5q-236 0 -403 87t-256 253t-89 397zM647 545q0 -106 50 -178t175 -72q102 0 167 50t96.5 129t31.5 163q0 72 -23.5 130t-75.5 92t-138 34q-92 0 -154.5 -48 t-95.5 -127t-33 -173z" />
<glyph unicode="A" horiz-adv-x="1368" d="M41 0l524 1454h238l524 -1454h-192l-146 414h-610l-146 -414h-192zM438 586h492l-246 714z" />
<glyph unicode="B" horiz-adv-x="1392" d="M188 0v1454h500q258 0 387 -94t129 -297q0 -94 -41 -166t-116.5 -112t-180.5 -40l-2 13q186 0 294 -99.5t108 -259.5q0 -199 -129 -299t-367 -100h-582zM365 172h405q150 0 230.5 61.5t80.5 176.5t-80.5 179t-230.5 64h-405v-481zM365 825h323q160 0 246 60.5t86 169.5 q0 115 -83 171t-249 56h-323v-457z" />
<glyph unicode="C" horiz-adv-x="1439" d="M92 725q0 236 82 407t229.5 263t341.5 92q264 0 409.5 -133t191.5 -363l-187 -12q-31 156 -131 246t-283 90q-139 0 -244.5 -70.5t-165 -203t-59.5 -316.5t59.5 -315t165 -201t244.5 -70q190 0 295 99.5t131 269.5l187 -12q-27 -158 -104.5 -277t-206 -185.5 t-302.5 -66.5q-195 0 -342 91.5t-229 261t-82 405.5z" />
<glyph unicode="D" horiz-adv-x="1429" d="M188 0v1454h451q336 0 517 -189.5t181 -539.5q0 -348 -178 -536.5t-508 -188.5h-463zM365 172h274q256 0 385 138.5t129 414.5q0 281 -129 419t-385 138h-274v-1110z" />
<glyph unicode="E" horiz-adv-x="1234" d="M188 0v1454h914v-172h-737v-469h712v-168h-712v-473h753v-172h-930z" />
<glyph unicode="F" horiz-adv-x="1208" d="M188 0v1454h914v-172h-826l89 90v-667l-89 90h789v-168h-789l89 90v-717h-177z" />
<glyph unicode="G" horiz-adv-x="1433" d="M92 725q0 219 78 391t224.5 271.5t350.5 99.5q174 0 294 -63.5t190.5 -172t97.5 -243.5l-184 -13q-27 141 -119 230.5t-279 89.5q-166 0 -269 -82t-151.5 -216t-48.5 -292q0 -166 49.5 -298t154 -210t265.5 -78q129 0 223.5 58.5t145.5 157t53 212.5h-417v168h581v-735 h-131l-12 336l24 -29q-25 -98 -94 -175t-166.5 -121t-210.5 -44q-205 0 -350 98.5t-222 269.5t-77 390z" />
<glyph unicode="H" horiz-adv-x="1460" d="M188 0v1454h177v-706l-91 69h912l-90 -69v706h176v-1454h-176v715l90 -70h-912l91 70v-715h-177z" />
<glyph unicode="I" horiz-adv-x="552" d="M188 0v1454h177v-1454h-177z" />
<glyph unicode="J" horiz-adv-x="1222" d="M137 475l180 12q2 -168 76 -258t207 -90q139 0 214 96.5t75 272.5v946h176v-946q0 -166 -57.5 -288t-161 -187.5t-246.5 -65.5q-135 0 -239.5 64.5t-163 179.5t-60.5 264z" />
<glyph unicode="K" horiz-adv-x="1310" d="M188 0v1454h177v-723l653 723h223l-569 -631l608 -823h-215l-512 692l-188 -207v-485h-177z" />
<glyph unicode="L" horiz-adv-x="1187" d="M188 0v1454h177v-1372l-89 90h816v-172h-904z" />
<glyph unicode="M" horiz-adv-x="1796" d="M188 0v1454h246l465 -1261l463 1261h246v-1454h-176v1126l-416 -1126h-236l-415 1126v-1126h-177z" />
<glyph unicode="N" horiz-adv-x="1521" d="M188 0v1454h250l719 -1278v1278h176v-1454h-262l-706 1253v-1253h-177z" />
<glyph unicode="O" horiz-adv-x="1513" d="M92 725q0 236 80 407t228.5 263t355.5 92q209 0 357.5 -92t228 -263t79.5 -407t-79.5 -405.5t-228 -261t-357.5 -91.5q-207 0 -355.5 91.5t-228.5 261t-80 405.5zM276 725q0 -184 57.5 -315t165 -201t257.5 -70q152 0 259 70t164.5 201t57.5 315t-57.5 316.5t-165 203 t-258.5 70.5q-150 0 -257.5 -70.5t-165 -203t-57.5 -316.5z" />
<glyph unicode="P" horiz-adv-x="1331" d="M188 0v1454h523q244 0 379 -116.5t135 -323.5q0 -139 -61.5 -240.5t-176.5 -155t-276 -53.5h-346v-565h-177zM365 737h346q164 0 246.5 70t82.5 207q0 133 -83 200.5t-246 67.5h-346v-545z" />
<glyph unicode="Q" horiz-adv-x="1501" d="M92 725q0 213 77 385t224.5 274.5t356.5 102.5q213 0 360 -102.5t223 -274.5t76 -385q0 -201 -71.5 -369t-207.5 -270l181 -227h-189l-121 155q-49 -20 -114.5 -33.5t-136.5 -13.5q-209 0 -355.5 101.5t-224.5 273.5t-78 383zM276 725q0 -160 52.5 -293t158 -213 t263.5 -80q45 0 79.5 5.5t61.5 17.5l-211 264h188l156 -205q100 80 150.5 208t50.5 296q0 162 -52.5 295t-158 214t-264.5 81q-160 0 -264.5 -81t-157 -214t-52.5 -295z" />
<glyph unicode="R" horiz-adv-x="1376" d="M188 0v1454h551q154 0 264.5 -53t171 -152.5t60.5 -234.5q0 -98 -46 -175t-118 -122t-149 -49l-13 18q133 0 210 -61.5t89 -196.5l41 -428h-178l-37 410q-8 90 -64.5 133t-183.5 43h-421v-586h-177zM365 758h397q133 0 211 67.5t78 192.5q0 127 -80 195.5t-232 68.5h-374 v-524z" />
<glyph unicode="S" horiz-adv-x="1310" d="M113 465l184 12q14 -109 63.5 -184.5t132 -114.5t199.5 -39q102 0 174 27t110 78t38 125q0 68 -32 120t-121 96t-263 87q-168 43 -267.5 94t-143.5 125t-44 182q0 123 58.5 216t167 145.5t258.5 52.5q160 0 274.5 -60.5t182 -165t83.5 -237.5l-184 -12q-12 88 -56 156.5 t-120 107.5t-184 39q-135 0 -215 -64.5t-80 -169.5q0 -68 31.5 -111.5t113.5 -77.5t236 -73q182 -45 289.5 -107.5t153.5 -144.5t46 -186q0 -127 -65.5 -220t-180 -143.5t-264.5 -50.5q-168 0 -293 63.5t-197.5 175t-84.5 259.5z" />
<glyph unicode="T" horiz-adv-x="1130" d="M25 1282v172h1081v-172h-453v-1282h-176v1282h-452z" />
<glyph unicode="U" horiz-adv-x="1411" d="M158 508v948h176v-948q0 -176 97 -272.5t276 -96.5q176 0 273 96.5t97 272.5v948h176v-948q0 -166 -66.5 -288t-189 -187.5t-290.5 -65.5t-292 65.5t-190.5 187.5t-66.5 288z" />
<glyph unicode="V" horiz-adv-x="1366" d="M41 1454h192l451 -1261l449 1261h192l-526 -1454h-232z" />
<glyph unicode="W" horiz-adv-x="1935" d="M78 1454h192l299 -1212l297 1212h201l299 -1212l297 1212h195l-383 -1454h-222l-286 1126l-287 -1126h-219z" />
<glyph unicode="X" horiz-adv-x="1241" d="M31 0l477 729l-473 725h209l379 -586l374 586h205l-473 -721l481 -733h-209l-383 594l-382 -594h-205z" />
<glyph unicode="Y" horiz-adv-x="1179" d="M-12 1454h209l393 -680l393 680h209l-514 -860v-594h-176v594z" />
<glyph unicode="Z" horiz-adv-x="1114" d="M57 0v180l779 1102h-752v172h952v-180l-778 -1102h799v-172h-1000z" />
<glyph unicode="[" horiz-adv-x="710" d="M188 -225v1761h492v-143h-328v-1475h328v-143h-492z" />
<glyph unicode="\" horiz-adv-x="931" d="M82 1536h164l604 -1761h-164z" />
<glyph unicode="]" horiz-adv-x="710" d="M31 -82h327v1475h-327v143h491v-1761h-491v143z" />
<glyph unicode="^" horiz-adv-x="872" d="M82 784l246 594h217l246 -594h-168l-199 469h25l-199 -469h-168z" />
<glyph unicode="_" horiz-adv-x="1140" d="M90 0h961v-160h-961v160z" />
<glyph unicode="`" horiz-adv-x="507" d="M90 1497h193l135 -262h-144z" />
<glyph unicode="a" horiz-adv-x="1128" d="M90 270q0 139 82 219t260 113l385 72q0 137 -64.5 204.5t-193.5 67.5q-113 0 -178.5 -50t-89.5 -144l-182 14q31 154 148.5 249t301.5 95q209 0 319.5 -118t110.5 -324v-449q0 -37 13.5 -52t44.5 -15h43v-152q-8 -2 -27 -3t-39 -1q-74 0 -120 23.5t-66.5 73.5t-20.5 132 l21 -4q-14 -70 -69.5 -126t-137.5 -88t-174 -32q-168 0 -267.5 78t-99.5 217zM270 287q0 -76 54.5 -118t148.5 -42q109 0 185.5 42t117.5 114.5t41 162.5v78l-352 -65q-111 -20 -153 -62.5t-42 -109.5z" />
<glyph unicode="b" horiz-adv-x="1218" d="M164 0v1454h172v-520q41 68 127 122t199 54q143 0 247.5 -69.5t161.5 -196.5t57 -301t-57 -301t-161.5 -197t-247.5 -70q-113 0 -201 50.5t-135 138.5l-7 -164h-155zM336 543q0 -123 38 -214t108.5 -140.5t168.5 -49.5q137 0 217 108.5t80 295.5q0 188 -80 295.5 t-213 107.5q-100 0 -171.5 -48t-109.5 -138t-38 -217z" />
<glyph unicode="c" horiz-adv-x="1118" d="M90 543q0 172 61.5 299t173 197.5t263.5 70.5q125 0 222 -44t158.5 -128t80.5 -205l-181 -12q-18 109 -94 167t-186 58q-150 0 -234 -107.5t-84 -295.5t84 -296t234 -108q111 0 186.5 61.5t93.5 184.5l181 -12q-18 -121 -80 -210t-159 -138.5t-222 -49.5 q-152 0 -263.5 70t-173 198t-61.5 300z" />
<glyph unicode="d" horiz-adv-x="1218" d="M90 543q0 174 55.5 301t159 196.5t244.5 69.5q109 0 199 -46t135 -130v520h172v-1454h-156l-6 164q-45 -88 -137 -138.5t-207 -50.5q-141 0 -244.5 70t-159 197t-55.5 301zM270 543q0 -186 85.5 -295t228.5 -109q96 0 162.5 49.5t101.5 140.5t35 214q0 127 -35 217 t-101.5 138t-162.5 48q-143 0 -228.5 -107.5t-85.5 -295.5z" />
<glyph unicode="e" horiz-adv-x="1148" d="M90 543q0 172 60.5 299t170 197.5t259.5 70.5q141 0 249.5 -66.5t169 -193.5t60.5 -309v-52h-789q10 -174 93 -262t225 -88q106 0 174.5 50.5t95.5 132.5l184 -15q-43 -145 -162.5 -238.5t-291.5 -93.5q-154 0 -265.5 70t-172 198t-60.5 300zM270 641h600 q-12 158 -91 231.5t-199 73.5q-125 0 -206 -76.5t-104 -228.5z" />
<glyph unicode="f" horiz-adv-x="808" d="M123 934v151h592v-151h-592zM270 0v1184q0 121 70 195.5t217 74.5h172v-151h-160q-63 0 -95 -35t-32 -97v-1171h-172z" />
<glyph unicode="g" horiz-adv-x="1216" d="M90 584q0 156 59.5 273.5t165 185t240.5 67.5q115 0 206 -53t128 -144v172h164v-1011q0 -127 -57.5 -218.5t-164 -139.5t-256.5 -48q-117 0 -211 39t-157.5 110.5t-85.5 166.5l180 12q25 -76 87.5 -120t186.5 -44q147 0 226.5 59.5t79.5 178.5v176q-39 -86 -125 -137.5 t-193 -51.5q-137 0 -244.5 68t-168 186.5t-60.5 272.5zM270 584q0 -168 81 -265.5t220 -97.5t223.5 97.5t86.5 265.5v11q0 106 -36 183q-38 80 -108.5 124t-165.5 44q-143 0 -222 -97t-79 -265z" />
<glyph unicode="h" horiz-adv-x="1189" d="M164 0v1454h172v-608l-21 4q20 90 69.5 147.5t121.5 85t158 27.5q117 0 197.5 -52t122.5 -145.5t42 -214.5v-698h-172v649q0 158 -56.5 233.5t-170.5 75.5q-131 0 -211 -79.5t-80 -231.5v-647h-172z" />
<glyph unicode="i" horiz-adv-x="499" d="M160 1255v201h180v-201h-180zM164 0v1085h172v-1085h-172z" />
<glyph unicode="j" horiz-adv-x="532" d="M-10 -156h88q53 0 86 26t33 93v1122h172v-1130q0 -143 -63.5 -202.5t-211.5 -59.5h-104v151zM192 1255v201h180v-201h-180z" />
<glyph unicode="k" horiz-adv-x="1208" d="M164 0v1454h172v-952l528 583h230l-428 -460l446 -625h-209l-354 508l-213 -225v-283h-172z" />
<glyph unicode="l" horiz-adv-x="546" d="M164 205v1249h172v-1235q0 -33 17.5 -50t49.5 -17h95v-152h-121q-94 0 -153.5 49t-59.5 156z" />
<glyph unicode="m" horiz-adv-x="1796" d="M164 0v1085h158l6 -274l-25 8q18 90 64.5 154.5t114 100.5t149.5 36q141 0 230 -78t112 -217l-33 2q16 94 60 158.5t114 99.5t160 35q117 0 196.5 -48t120.5 -140.5t41 -223.5v-698h-172v662q0 147 -57 221.5t-170 74.5q-76 0 -132.5 -36.5t-87 -105t-30.5 -167.5v-649 h-172v649q0 145 -51 227t-172 82q-76 0 -132.5 -36.5t-88 -106.5t-31.5 -166v-649h-172z" />
<glyph unicode="n" horiz-adv-x="1189" d="M164 0v1085h158l6 -276l-21 18q20 96 71.5 159t124 93.5t156.5 30.5q125 0 206 -55.5t121 -148.5t40 -208v-698h-172v649q0 100 -23.5 169t-74.5 104.5t-133 35.5q-125 0 -206 -78.5t-81 -230.5v-649h-172z" />
<glyph unicode="o" d="M90 543q0 174 61.5 301t174 196.5t262.5 69.5t261.5 -69.5t172.5 -196.5t61 -301q0 -172 -61 -300t-172.5 -198t-261.5 -70t-262.5 70t-174 198t-61.5 300zM270 543q0 -188 84 -296t234 -108t232.5 107.5t82.5 296.5q0 188 -83 295.5t-232 107.5q-150 0 -234 -107.5 t-84 -295.5z" />
<glyph unicode="p" horiz-adv-x="1218" d="M164 -307v1392h160l4 -233l-25 12q41 121 136.5 183.5t219.5 62.5q162 0 265.5 -80t153.5 -209t50 -278q0 -150 -50 -279t-153.5 -209t-265.5 -80q-84 0 -156.5 29t-122.5 80t-69 121l25 28v-540h-172zM336 543q0 -133 37 -223.5t106.5 -135.5t163.5 -45q141 0 223 106.5 t82 297.5q0 190 -82 296.5t-223 106.5q-94 0 -162.5 -45t-106.5 -135t-38 -223z" />
<glyph unicode="q" horiz-adv-x="1218" d="M90 543q0 150 50 278.5t153.5 208.5t265.5 80q127 0 222.5 -62.5t133.5 -183.5l-24 -12l4 233h160v-1392h-172v540l24 -28q-18 -70 -68.5 -121t-123 -80t-156.5 -29q-162 0 -265.5 80t-153.5 209t-50 279zM270 543q0 -190 82 -297t223 -107q96 0 165 45t106 135.5 t37 223.5t-38 223t-106.5 135t-163.5 45q-141 0 -223 -106.5t-82 -296.5z" />
<glyph unicode="r" horiz-adv-x="776" d="M164 0v1085h151l9 -274l-17 6q20 139 89 203.5t184 64.5h106v-163h-104q-82 0 -136.5 -30t-82 -88.5t-27.5 -148.5v-655h-172z" />
<glyph unicode="s" horiz-adv-x="1073" d="M90 342l180 12q16 -98 84 -156.5t205 -58.5q111 0 177.5 36t66.5 116q0 43 -20.5 71.5t-80 50t-176.5 42.5q-156 29 -244.5 70.5t-126.5 104t-38 148.5q0 145 106.5 238.5t302.5 93.5q133 0 224.5 -48t143.5 -127t69 -173l-181 -12q-12 57 -44.5 101t-86 69.5 t-127.5 25.5q-117 0 -172 -45t-55 -115q0 -53 25.5 -86.5t83 -55t153.5 -38.5q166 -29 258 -69.5t129 -100t37 -145.5q0 -100 -56.5 -171t-151.5 -108t-216 -37q-145 0 -246.5 47.5t-158 130.5t-64.5 189z" />
<glyph unicode="t" horiz-adv-x="802" d="M113 934v151h620v-151h-620zM272 279v1060h172v-1056q0 -74 33 -102.5t101 -28.5h155v-152h-172q-147 0 -218 67.5t-71 211.5z" />
<glyph unicode="u" horiz-adv-x="1177" d="M164 387v698h172v-651q0 -158 56.5 -232.5t172.5 -74.5q129 0 203 83t74 228v647h172v-1085h-164v268l27 -14q-33 -133 -125.5 -206t-231.5 -73q-162 0 -259 110t-97 302z" />
<glyph unicode="v" horiz-adv-x="1097" d="M45 1085h188l316 -909l315 909h189l-396 -1085h-217z" />
<glyph unicode="w" horiz-adv-x="1677" d="M45 1085h188l254 -905l258 905h185l258 -905l256 905h188l-336 -1085h-217l-241 825l-242 -825h-215z" />
<glyph unicode="x" horiz-adv-x="1198" d="M96 0l400 557l-379 528h200l285 -409l277 409h204l-374 -532l393 -553h-201l-299 438l-301 -438h-205z" />
<glyph unicode="y" horiz-adv-x="1099" d="M45 1085h188l324 -905l309 905h189l-441 -1222q-31 -88 -92 -129t-170 -41h-141v151h125q57 0 85 17.5t42 56.5l39 102h-60z" />
<glyph unicode="z" horiz-adv-x="1124" d="M117 0v172l686 762h-666v151h854v-172l-686 -761h703v-152h-891z" />
<glyph unicode="{" horiz-adv-x="796" d="M92 565v170q68 0 115 33t71.5 95.5t24.5 150.5v170q0 156 93 254t255 98h115v-160q-162 6 -230.5 -37t-68.5 -151v-189q0 -154 -67.5 -238.5t-161.5 -107.5v-2q96 -20 162.5 -108t66.5 -242v-188q0 -106 68.5 -149.5t230.5 -39.5v-160h-115q-162 0 -255 98.5t-93 254.5 v170q0 88 -24.5 150.5t-71.5 95t-115 32.5z" />
<glyph unicode="|" horiz-adv-x="540" d="M188 -225v1761h164v-1761h-164z" />
<glyph unicode="}" horiz-adv-x="796" d="M31 -76q164 -4 231.5 39t67.5 150v188q0 154 66.5 242t162.5 108v2q-94 23 -161.5 108t-67.5 238v189q0 109 -67.5 151.5t-231.5 36.5v160h114q164 0 256.5 -98.5t92.5 -253.5v-170q0 -88 24.5 -150.5t71.5 -95.5t115 -33v-170q-68 0 -115 -32.5t-71.5 -95t-24.5 -150.5 v-170q0 -156 -92.5 -254.5t-256.5 -98.5h-114v160z" />
<glyph unicode="~" horiz-adv-x="1071" d="M82 504q0 168 73.5 272.5t192.5 104.5q78 0 124 -31t99 -100q53 -70 81 -89.5t67 -19.5q53 0 80.5 56.5t27.5 162.5h162q0 -168 -73.5 -272.5t-194.5 -104.5q-72 0 -116 28t-105 101q-41 51 -64.5 75t-41 30t-40.5 6q-53 0 -81.5 -55.5t-28.5 -163.5h-162z" />
<glyph unicode="&#xa1;" horiz-adv-x="436" d="M102 891v231h232v-231h-232zM137 139q0 82 6.5 186.5t13.5 205t13 171.5h113q6 -72 13 -172t12 -204.5t5 -186.5v-471h-176v471z" />
<glyph unicode="&#xa2;" horiz-adv-x="1118" d="M90 731q0 172 61.5 300t173 197.5t263.5 69.5q125 0 222 -44t158.5 -128t80.5 -204l-181 -13q-18 109 -94 167.5t-186 58.5q-150 0 -234 -107.5t-84 -296.5q0 -188 84 -295.5t234 -107.5q111 0 186.5 61.5t93.5 183.5l181 -12q-18 -121 -80 -210t-159 -138t-222 -49 q-152 0 -263.5 70.5t-173 197.5t-61.5 299zM434 -25l129 1512h144l-129 -1512h-144z" />
<glyph unicode="&#xa3;" horiz-adv-x="1251" d="M113 649v152h198q-27 80 -43 149.5t-16 132.5q0 115 56.5 206t154.5 144.5t221 53.5q154 0 252 -50.5t151.5 -132t67.5 -178.5l-205 -14q-27 102 -97.5 152.5t-160.5 50.5q-78 0 -136 -34t-90 -92.5t-32 -133.5q0 -47 14.5 -109.5t38.5 -144.5h365v-152h-340 q0 -182 -46 -293.5t-175 -177.5h839v-178h-1015v168q115 70 177 171t62 230q0 18 -2 39t-6 41h-233z" />
<glyph unicode="&#xa4;" horiz-adv-x="1277" d="M92 279l275 274l114 -115l-274 -272zM92 1145l115 112l274 -272l-114 -115zM207 711q0 119 58.5 217t156.5 156.5t217 58.5t217 -58.5t156.5 -157t58.5 -216.5q0 -119 -58.5 -217.5t-156.5 -156.5t-217 -58t-217 58t-156.5 156.5t-58.5 217.5zM350 711q0 -80 39 -145.5 t104.5 -104.5t145.5 -39q78 0 143.5 39t105.5 104.5t40 145.5t-40 145.5t-105.5 104t-143.5 38.5q-80 0 -145.5 -38.5t-104.5 -104t-39 -145.5zM797 438l114 115l275 -274l-115 -113zM797 985l274 272l115 -112l-275 -275z" />
<glyph unicode="&#xa5;" horiz-adv-x="1179" d="M-12 1454h209l393 -680l393 680h209l-514 -860v-594h-176v594zM180 293v160h930v-160h-930zM180 596v160h930v-160h-930z" />
<glyph unicode="&#xa6;" horiz-adv-x="540" d="M188 -225v727h164v-727h-164zM188 809v727h164v-727h-164z" />
<glyph unicode="&#xa7;" horiz-adv-x="1124" d="M113 236l178 12q16 -98 88 -156.5t203 -58.5q94 0 147 18.5t76.5 53t23.5 79.5q0 63 -66.5 110.5t-227.5 80.5q-139 31 -224.5 71.5t-124.5 98t-39 135.5q0 90 49.5 155.5t143.5 106.5q-94 41 -141 99.5t-47 129.5q0 96 53 167t147 110t219 39q123 0 216.5 -41 t150.5 -119t72 -188l-176 -13q-16 94 -90 145.5t-191 51.5q-63 0 -112.5 -18.5t-78 -51t-28.5 -73.5q0 -63 54 -99.5t204 -76.5q160 -39 252 -84.5t130 -106.5t38 -154q0 -82 -43 -138t-129 -91q86 -41 127 -102.5t41 -155.5q0 -88 -55.5 -156.5t-150.5 -107.5t-220 -39 q-137 0 -239.5 48t-161 131t-68.5 188zM311 698q0 -45 30 -89t102.5 -72.5t197.5 -28.5q96 0 152.5 44t56.5 116q0 68 -51 109.5t-128 61t-155 19.5q-55 0 -101 -21.5t-75 -57.5t-29 -81z" />
<glyph unicode="&#xa8;" horiz-adv-x="716" d="M90 1255v201h180v-201h-180zM446 1255v201h181v-201h-181z" />
<glyph unicode="&#xa9;" horiz-adv-x="1695" d="M92 731q0 158 58.5 294t163 240.5t241.5 163t293 58.5q158 0 294 -58.5t240.5 -163t163 -240.5t58.5 -294q0 -156 -58.5 -293t-163 -241.5t-240.5 -163t-294 -58.5q-156 0 -293 58.5t-241.5 163t-163 241.5t-58.5 293zM260 731q0 -123 46 -230.5t127 -188.5t187.5 -127 t227.5 -46t226.5 46t187 127t128 188.5t46.5 230.5t-46.5 230.5t-128 188.5t-187 127t-226.5 46t-227.5 -46t-187.5 -127t-127 -188.5t-46 -230.5zM440 731q0 127 53.5 224.5t147.5 152.5t215 55q102 0 183 -40t132.5 -111.5t59.5 -163.5l-160 -10q-12 78 -71.5 128 t-143.5 50q-74 0 -132 -36t-91 -100.5t-33 -148.5t33 -149.5t91 -102.5t132 -37q57 0 105.5 26t79 70t38.5 101l160 -10q-10 -96 -62.5 -172t-135.5 -119t-185 -43q-121 0 -215 55.5t-147.5 154.5t-53.5 226z" />
<glyph unicode="&#xaa;" horiz-adv-x="821" d="M82 954q0 92 57.5 144.5t163.5 72.5l227 46q0 70 -33.5 104.5t-93.5 34.5q-57 0 -89.5 -26.5t-43.5 -76.5l-176 9q18 109 99 167t210 58q147 0 223 -73t76 -210v-256q0 -27 9.5 -38t27.5 -11h21v-123q-6 -2 -22.5 -4t-39.5 -2q-41 0 -75.5 14.5t-54 49t-19.5 98.5l14 -6 q-14 -63 -78 -109.5t-166 -46.5q-106 0 -171.5 48t-65.5 136zM258 969q0 -37 22.5 -57.5t67.5 -20.5q80 0 131 44t51 120v47l-170 -37q-53 -12 -77.5 -36.5t-24.5 -59.5z" />
<glyph unicode="&#xab;" horiz-adv-x="1091" d="M90 489v152l287 334h211l-352 -410l352 -409h-211zM504 489v152l287 334h210l-352 -410l352 -409h-210z" />
<glyph unicode="&#xac;" horiz-adv-x="1024" d="M82 496v151h860v-512h-151v361h-709z" />
<glyph unicode="&#xad;" horiz-adv-x="858" d="M90 516v162h678v-162h-678z" />
<glyph unicode="&#xae;" horiz-adv-x="1300" d="M92 928q0 117 43 218t120 178t178.5 120t217.5 43q117 0 217.5 -43t177 -120t119.5 -178.5t43 -217.5q0 -117 -43 -218.5t-119.5 -178t-177 -120.5t-217.5 -44t-218 44t-178 120.5t-120 178t-43 218.5zM209 928q0 -121 56.5 -222.5t155.5 -162t230 -60.5t229.5 60.5 t155 162t56.5 222.5t-56.5 221t-155 159.5t-229.5 59.5t-230 -59.5t-155.5 -159.5t-56.5 -221zM428 621v610h203q119 0 185.5 -49t66.5 -138q0 -63 -35 -108t-98 -62l157 -253h-129l-141 239h-94v-239h-115zM543 954h104q59 0 92 26t33 69q0 41 -32.5 63.5t-92.5 22.5h-104 v-181z" />
<glyph unicode="&#xaf;" horiz-adv-x="729" d="M90 1280v147h549v-147h-549z" />
<glyph unicode="&#xb0;" horiz-adv-x="827" d="M90 1163q0 92 44 166t118 116t162 42t161.5 -42t117.5 -116t44 -166t-44 -164.5t-117.5 -115.5t-161.5 -43t-162 43t-118 115.5t-44 164.5zM242 1163q0 -76 51 -124t121 -48q72 0 122 48t50 124q0 78 -51.5 127t-120.5 49q-70 0 -121 -49t-51 -127z" />
<glyph unicode="&#xb1;" horiz-adv-x="1101" d="M82 0v152h938v-152h-938zM82 606v160h938v-160h-938zM471 217v938h160v-938h-160z" />
<glyph unicode="&#xb2;" horiz-adv-x="712" d="M82 662q0 86 13.5 149t56.5 116.5t133 102.5l106 60q39 23 61.5 42t33 44.5t10.5 64.5q0 53 -37 82t-86 29q-74 0 -111 -36t-47 -110l-131 6q12 117 85 187.5t204 70.5q119 0 188.5 -63.5t69.5 -165.5q0 -98 -53.5 -154.5t-143.5 -103.5l-84 -45q-61 -33 -89 -75t-28 -83 h394v-118h-545z" />
<glyph unicode="&#xb3;" horiz-adv-x="679" d="M41 868l131 6q4 -49 40 -79.5t118 -30.5q76 0 115.5 33.5t39.5 91.5q0 59 -38.5 95t-127.5 36h-51v117h51q57 0 92 26.5t35 77.5q0 47 -30.5 78t-96.5 31q-63 0 -97 -30t-38 -71l-131 8q12 90 80 151.5t186 61.5q129 0 195 -60t66 -157q0 -70 -36 -108.5t-102 -59.5 q102 -25 139 -78t37 -120q0 -113 -82.5 -177.5t-205.5 -64.5q-106 0 -168 28.5t-89.5 80t-31.5 114.5z" />
<glyph unicode="&#xb4;" horiz-adv-x="507" d="M90 1225l135 262h193l-185 -262h-143z" />
<glyph unicode="&#xb5;" horiz-adv-x="1177" d="M164 -307v778l172 -367v-411h-172zM164 387v698h172v-651q0 -158 56.5 -232.5t172.5 -74.5q129 0 203 83t74 228v647h172v-1085h-164v268l27 -14q-33 -133 -125.5 -206t-231.5 -73q-162 0 -259 110t-97 302z" />
<glyph unicode="&#xb6;" horiz-adv-x="1220" d="M92 1040q0 127 59.5 220.5t167 143.5t246.5 50h467v-1454h-164v1298h-139v-1298h-164v627q-141 0 -247.5 50t-166 143t-59.5 220z" />
<glyph unicode="&#xb7;" horiz-adv-x="411" d="M90 508v231h232v-231h-232z" />
<glyph unicode="&#xb8;" horiz-adv-x="649" d="M90 -291l105 41q18 -45 48.5 -65.5t82.5 -20.5q53 0 81.5 21.5t28.5 60.5t-28.5 64.5t-126.5 25.5l-58 62l78 122h131l-70 -94q100 -4 148.5 -54t48.5 -130q0 -57 -29.5 -100t-80.5 -68t-119 -25q-98 0 -157.5 46.5t-82.5 113.5z" />
<glyph unicode="&#xb9;" horiz-adv-x="495" d="M41 1180v102h49q90 0 136 46t46 128h101v-794h-135v520z" />
<glyph unicode="&#xba;" horiz-adv-x="858" d="M82 1128q0 164 94 261.5t254 97.5q158 0 252 -98.5t94 -260.5q0 -164 -94 -261t-252 -97q-160 0 -254 97.5t-94 260.5zM254 1128q0 -104 45 -164.5t131 -60.5q84 0 129 59.5t45 165.5q0 104 -45 165t-129 61q-86 0 -131 -61.5t-45 -164.5z" />
<glyph unicode="&#xbb;" horiz-adv-x="1099" d="M80 156l352 409l-352 410h211l287 -334v-152l-287 -333h-211zM493 156l352 409l-352 410h211l287 -334v-152l-287 -333h-211z" />
<glyph unicode="&#xbc;" horiz-adv-x="1499" d="M41 1180v102h49q90 0 136 46t46 128h101v-794h-135v520zM168 0l1004 1454h164l-1004 -1454h-164zM843 184v104l377 504h127v-489h111v-119h-111v-184h-135v184h-369zM987 303h225v292z" />
<glyph unicode="&#xbd;" horiz-adv-x="1638" d="M41 1180v102h49q90 0 136 46t46 128h101v-794h-135v520zM168 0l1004 1454h164l-1004 -1454h-164zM1008 0q0 86 13.5 149t56.5 116.5t133 102.5l106 60q39 23 61.5 42t33 44.5t10.5 64.5q0 53 -37 82t-86 29q-74 0 -111 -36t-47 -110l-131 6q12 117 85 187.5t204 70.5 q119 0 188.5 -63.5t69.5 -165.5q0 -98 -53.5 -154.5t-143.5 -103.5l-84 -45q-61 -33 -89 -75t-28 -83h394v-118h-545z" />
<glyph unicode="&#xbe;" horiz-adv-x="1601" d="M41 868l131 6q4 -49 40 -79.5t118 -30.5q76 0 115.5 33.5t39.5 91.5q0 59 -38.5 95t-127.5 36h-51v117h51q57 0 92 26.5t35 77.5q0 47 -30.5 78t-96.5 31q-63 0 -97 -30t-38 -71l-131 8q12 90 80 151.5t186 61.5q129 0 195 -60t66 -157q0 -70 -36 -108.5t-102 -59.5 q102 -25 139 -78t37 -120q0 -113 -82.5 -177.5t-205.5 -64.5q-106 0 -168 28.5t-89.5 80t-31.5 114.5zM270 0l1004 1454h164l-1004 -1454h-164zM946 184v104l377 504h127v-489h111v-119h-111v-184h-135v184h-369zM1090 303h225v292z" />
<glyph unicode="&#xbf;" horiz-adv-x="1144" d="M90 86q0 86 27.5 149.5t85 117t145.5 110.5q84 53 112.5 113.5t28.5 166.5h177q0 -147 -46.5 -234t-152.5 -153q-80 -49 -121 -87t-56.5 -80t-15.5 -103q0 -106 71 -176t196 -70q152 0 233.5 78t95.5 225l185 -12q-12 -135 -78 -239.5t-176 -164t-260 -59.5 q-133 0 -234.5 53.5t-159 148.5t-57.5 216zM467 924v231h231v-231h-231z" />
<glyph unicode="&#xc0;" horiz-adv-x="1368" d="M41 0l524 1454h238l524 -1454h-192l-146 414h-610l-146 -414h-192zM436 1866h193l135 -262h-144zM438 586h492l-246 714z" />
<glyph unicode="&#xc1;" horiz-adv-x="1368" d="M41 0l524 1454h238l524 -1454h-192l-146 414h-610l-146 -414h-192zM438 586h492l-246 714zM608 1594l135 262h193l-185 -262h-143z" />
<glyph unicode="&#xc2;" horiz-adv-x="1368" d="M41 0l524 1454h238l524 -1454h-192l-146 414h-610l-146 -414h-192zM403 1594l184 272h193l184 -272h-143l-154 205h33l-154 -205h-143zM438 586h492l-246 714z" />
<glyph unicode="&#xc3;" horiz-adv-x="1370" d="M39 0l524 1454h238l524 -1454h-192l-146 414h-610l-146 -414h-192zM334 1604q4 119 58.5 179.5t136.5 60.5q49 0 85 -16.5t70 -45.5q33 -27 55.5 -38t47.5 -11q39 0 59.5 27.5t26.5 103.5h106q-6 -117 -59 -181.5t-141 -64.5q-39 0 -74 15.5t-70 42.5q-35 29 -55.5 41 t-50.5 12q-37 0 -60.5 -25.5t-27.5 -99.5h-107zM436 586h492l-246 714z" />
<glyph unicode="&#xc4;" horiz-adv-x="1368" d="M41 0l524 1454h238l524 -1454h-192l-146 414h-610l-146 -414h-192zM416 1624v201h180v-201h-180zM438 586h492l-246 714zM772 1624v201h181v-201h-181z" />
<glyph unicode="&#xc5;" horiz-adv-x="1370" d="M39 0l524 1454h238l524 -1454h-192l-146 414h-610l-146 -414h-192zM436 586h492l-246 714zM487 1737q0 80 54.5 134t134.5 54t134 -54t54 -134t-54 -134t-134 -54t-134.5 54t-54.5 134zM590 1737q0 -37 24.5 -61.5t61.5 -24.5t61.5 24.5t24.5 61.5t-25 61.5t-61 24.5 q-37 0 -61.5 -24.5t-24.5 -61.5z" />
<glyph unicode="&#xc6;" horiz-adv-x="1990" d="M41 0l778 1454h1039v-172h-672v-469h647v-168h-647v-473h688v-172h-864v414h-590l88 172h502v702h-105l-665 -1288h-199z" />
<glyph unicode="&#xc7;" horiz-adv-x="1439" d="M92 725q0 236 82 407t229.5 263t341.5 92q264 0 409.5 -133t191.5 -363l-187 -12q-31 156 -131 246t-283 90q-139 0 -244.5 -70.5t-165 -203t-59.5 -316.5t59.5 -315t165 -201t244.5 -70q190 0 295 99.5t131 269.5l187 -12q-27 -158 -104.5 -277t-206 -185.5 t-302.5 -66.5q-195 0 -342 91.5t-229 261t-82 405.5zM489 -291l105 41q18 -45 48.5 -65.5t82.5 -20.5q53 0 81.5 21.5t28.5 60.5t-28.5 64.5t-126.5 25.5l-58 62l78 122h131l-70 -94q100 -4 148.5 -54t48.5 -130q0 -57 -29.5 -100t-80.5 -68t-119 -25q-98 0 -157.5 46.5 t-82.5 113.5z" />
<glyph unicode="&#xc8;" horiz-adv-x="1234" d="M188 0v1454h914v-172h-737v-469h712v-168h-712v-473h753v-172h-930zM401 1866h193l135 -262h-144z" />
<glyph unicode="&#xc9;" horiz-adv-x="1234" d="M188 0v1454h914v-172h-737v-469h712v-168h-712v-473h753v-172h-930zM573 1594l135 262h193l-185 -262h-143z" />
<glyph unicode="&#xca;" horiz-adv-x="1234" d="M188 0v1454h914v-172h-737v-469h712v-168h-712v-473h753v-172h-930zM369 1594l184 272h193l184 -272h-143l-154 205h33l-154 -205h-143z" />
<glyph unicode="&#xcb;" horiz-adv-x="1234" d="M188 0v1454h914v-172h-737v-469h712v-168h-712v-473h753v-172h-930zM381 1624v201h180v-201h-180zM737 1624v201h181v-201h-181z" />
<glyph unicode="&#xcc;" horiz-adv-x="552" d="M29 1866h193l135 -262h-144zM188 0v1454h177v-1454h-177z" />
<glyph unicode="&#xcd;" horiz-adv-x="552" d="M188 0v1454h177v-1454h-177zM201 1594l135 262h193l-185 -262h-143z" />
<glyph unicode="&#xce;" horiz-adv-x="552" d="M-4 1594l184 272h193l184 -272h-143l-154 205h33l-154 -205h-143zM188 0v1454h177v-1454h-177z" />
<glyph unicode="&#xcf;" horiz-adv-x="552" d="M8 1624v201h180v-201h-180zM188 0v1454h177v-1454h-177zM364 1624v201h181v-201h-181z" />
<glyph unicode="&#xd0;" horiz-adv-x="1429" d="M41 647v160h737v-160h-737zM188 0v1454h451q336 0 517 -189.5t181 -539.5q0 -348 -178 -536.5t-508 -188.5h-463zM365 172h274q256 0 385 138.5t129 414.5q0 281 -129 419t-385 138h-274v-1110z" />
<glyph unicode="&#xd1;" horiz-adv-x="1521" d="M188 0v1454h250l719 -1278v1278h176v-1454h-262l-706 1253v-1253h-177zM467 1604q4 119 58.5 179.5t136.5 60.5q49 0 85 -16.5t70 -45.5q33 -27 55.5 -38t47.5 -11q39 0 59.5 27.5t26.5 103.5h106q-6 -117 -59 -181.5t-141 -64.5q-39 0 -74 15.5t-70 42.5 q-35 29 -55.5 41t-50.5 12q-37 0 -60.5 -25.5t-27.5 -99.5h-107z" />
<glyph unicode="&#xd2;" horiz-adv-x="1513" d="M92 725q0 236 80 407t228.5 263t355.5 92q209 0 357.5 -92t228 -263t79.5 -407t-79.5 -405.5t-228 -261t-357.5 -91.5q-207 0 -355.5 91.5t-228.5 261t-80 405.5zM276 725q0 -184 57.5 -315t165 -201t257.5 -70q152 0 259 70t164.5 201t57.5 315t-57.5 316.5t-165 203 t-258.5 70.5q-150 0 -257.5 -70.5t-165 -203t-57.5 -316.5zM508 1866h193l135 -262h-144z" />
<glyph unicode="&#xd3;" horiz-adv-x="1513" d="M92 725q0 236 80 407t228.5 263t355.5 92q209 0 357.5 -92t228 -263t79.5 -407t-79.5 -405.5t-228 -261t-357.5 -91.5q-207 0 -355.5 91.5t-228.5 261t-80 405.5zM276 725q0 -184 57.5 -315t165 -201t257.5 -70q152 0 259 70t164.5 201t57.5 315t-57.5 316.5t-165 203 t-258.5 70.5q-150 0 -257.5 -70.5t-165 -203t-57.5 -316.5zM680 1594l135 262h193l-185 -262h-143z" />
<glyph unicode="&#xd4;" horiz-adv-x="1513" d="M92 725q0 236 80 407t228.5 263t355.5 92q209 0 357.5 -92t228 -263t79.5 -407t-79.5 -405.5t-228 -261t-357.5 -91.5q-207 0 -355.5 91.5t-228.5 261t-80 405.5zM276 725q0 -184 57.5 -315t165 -201t257.5 -70q152 0 259 70t164.5 201t57.5 315t-57.5 316.5t-165 203 t-258.5 70.5q-150 0 -257.5 -70.5t-165 -203t-57.5 -316.5zM475 1594l184 272h193l184 -272h-143l-154 205h33l-154 -205h-143z" />
<glyph unicode="&#xd5;" horiz-adv-x="1513" d="M92 725q0 236 80 407t228.5 263t355.5 92q209 0 357.5 -92t228 -263t79.5 -407t-79.5 -405.5t-228 -261t-357.5 -91.5q-207 0 -355.5 91.5t-228.5 261t-80 405.5zM276 725q0 -184 57.5 -315t165 -201t257.5 -70q152 0 259 70t164.5 201t57.5 315t-57.5 316.5t-165 203 t-258.5 70.5q-150 0 -257.5 -70.5t-165 -203t-57.5 -316.5zM432 1604q4 119 58.5 179.5t136.5 60.5q49 0 85 -16.5t70 -45.5q33 -27 55.5 -38t47.5 -11q39 0 59.5 27.5t26.5 103.5h106q-6 -117 -59 -181.5t-141 -64.5q-39 0 -74 15.5t-70 42.5q-35 29 -55.5 41t-50.5 12 q-37 0 -60.5 -25.5t-27.5 -99.5h-107z" />
<glyph unicode="&#xd6;" horiz-adv-x="1513" d="M92 725q0 236 80 407t228.5 263t355.5 92q209 0 357.5 -92t228 -263t79.5 -407t-79.5 -405.5t-228 -261t-357.5 -91.5q-207 0 -355.5 91.5t-228.5 261t-80 405.5zM276 725q0 -184 57.5 -315t165 -201t257.5 -70q152 0 259 70t164.5 201t57.5 315t-57.5 316.5t-165 203 t-258.5 70.5q-150 0 -257.5 -70.5t-165 -203t-57.5 -316.5zM487 1624v201h180v-201h-180zM843 1624v201h181v-201h-181z" />
<glyph unicode="&#xd7;" horiz-adv-x="1028" d="M82 285l752 751l112 -112l-751 -752zM82 924l113 112l751 -751l-112 -113z" />
<glyph unicode="&#xd8;" horiz-adv-x="1513" d="M92 725q0 236 80 407t228.5 263t355.5 92q209 0 357.5 -92t228 -263t79.5 -407t-79.5 -405.5t-228 -261t-357.5 -91.5q-207 0 -355.5 91.5t-228.5 261t-80 405.5zM154 -33l1034 1520h172l-1034 -1520h-172zM276 725q0 -184 57.5 -315t165 -201t257.5 -70q152 0 259 70 t164.5 201t57.5 315t-57.5 316.5t-165 203t-258.5 70.5q-150 0 -257.5 -70.5t-165 -203t-57.5 -316.5z" />
<glyph unicode="&#xd9;" horiz-adv-x="1411" d="M158 508v948h176v-948q0 -176 97 -272.5t276 -96.5q176 0 273 96.5t97 272.5v948h176v-948q0 -166 -66.5 -288t-189 -187.5t-290.5 -65.5t-292 65.5t-190.5 187.5t-66.5 288zM459 1866h193l135 -262h-144z" />
<glyph unicode="&#xda;" horiz-adv-x="1411" d="M158 508v948h176v-948q0 -176 97 -272.5t276 -96.5q176 0 273 96.5t97 272.5v948h176v-948q0 -166 -66.5 -288t-189 -187.5t-290.5 -65.5t-292 65.5t-190.5 187.5t-66.5 288zM631 1594l135 262h193l-185 -262h-143z" />
<glyph unicode="&#xdb;" horiz-adv-x="1411" d="M158 508v948h176v-948q0 -176 97 -272.5t276 -96.5q176 0 273 96.5t97 272.5v948h176v-948q0 -166 -66.5 -288t-189 -187.5t-290.5 -65.5t-292 65.5t-190.5 187.5t-66.5 288zM426 1594l184 272h193l184 -272h-143l-154 205h33l-154 -205h-143z" />
<glyph unicode="&#xdc;" horiz-adv-x="1411" d="M158 508v948h176v-948q0 -176 97 -272.5t276 -96.5q176 0 273 96.5t97 272.5v948h176v-948q0 -166 -66.5 -288t-189 -187.5t-290.5 -65.5t-292 65.5t-190.5 187.5t-66.5 288zM438 1624v201h180v-201h-180zM794 1624v201h181v-201h-181z" />
<glyph unicode="&#xdd;" horiz-adv-x="1179" d="M-12 1454h209l393 -680l393 680h209l-514 -860v-594h-176v594zM514 1594l135 262h193l-185 -262h-143z" />
<glyph unicode="&#xde;" horiz-adv-x="1269" d="M188 0v1454h177v-1454h-177zM240 307v172h407q166 0 249 67.5t83 203.5q0 135 -83 202.5t-249 67.5h-407v172h407q244 0 380 -117t136 -325q0 -209 -136 -326t-380 -117h-407z" />
<glyph unicode="&#xdf;" horiz-adv-x="1202" d="M164 0v1028q0 137 55 237.5t154.5 155t232.5 54.5q201 0 313.5 -104.5t112.5 -272.5q0 -139 -88 -228.5t-233 -99.5l-2 35q123 -6 216 -57.5t145 -137.5t52 -196q0 -193 -135 -303.5t-381 -110.5h-131v164h131q162 0 249 63.5t87 194.5q0 86 -40 146.5t-118.5 92 t-197.5 31.5h-90v162h90q127 0 198.5 65.5t71.5 174.5q0 96 -61.5 156.5t-188.5 60.5q-123 0 -196.5 -75t-73.5 -208v-1028h-172z" />
<glyph unicode="&#xe0;" horiz-adv-x="1128" d="M90 270q0 139 82 219t260 113l385 72q0 137 -64.5 204.5t-193.5 67.5q-113 0 -178.5 -50t-89.5 -144l-182 14q31 154 148.5 249t301.5 95q209 0 319.5 -118t110.5 -324v-449q0 -37 13.5 -52t44.5 -15h43v-152q-8 -2 -27 -3t-39 -1q-74 0 -120 23.5t-66.5 73.5t-20.5 132 l21 -4q-14 -70 -69.5 -126t-137.5 -88t-174 -32q-168 0 -267.5 78t-99.5 217zM270 287q0 -76 54.5 -118t148.5 -42q109 0 185.5 42t117.5 114.5t41 162.5v78l-352 -65q-111 -20 -153 -62.5t-42 -109.5zM321 1497h193l135 -262h-144z" />
<glyph unicode="&#xe1;" horiz-adv-x="1128" d="M90 270q0 139 82 219t260 113l385 72q0 137 -64.5 204.5t-193.5 67.5q-113 0 -178.5 -50t-89.5 -144l-182 14q31 154 148.5 249t301.5 95q209 0 319.5 -118t110.5 -324v-449q0 -37 13.5 -52t44.5 -15h43v-152q-8 -2 -27 -3t-39 -1q-74 0 -120 23.5t-66.5 73.5t-20.5 132 l21 -4q-14 -70 -69.5 -126t-137.5 -88t-174 -32q-168 0 -267.5 78t-99.5 217zM270 287q0 -76 54.5 -118t148.5 -42q109 0 185.5 42t117.5 114.5t41 162.5v78l-352 -65q-111 -20 -153 -62.5t-42 -109.5zM493 1225l135 262h193l-185 -262h-143z" />
<glyph unicode="&#xe2;" horiz-adv-x="1128" d="M90 270q0 139 82 219t260 113l385 72q0 137 -64.5 204.5t-193.5 67.5q-113 0 -178.5 -50t-89.5 -144l-182 14q31 154 148.5 249t301.5 95q209 0 319.5 -118t110.5 -324v-449q0 -37 13.5 -52t44.5 -15h43v-152q-8 -2 -27 -3t-39 -1q-74 0 -120 23.5t-66.5 73.5t-20.5 132 l21 -4q-14 -70 -69.5 -126t-137.5 -88t-174 -32q-168 0 -267.5 78t-99.5 217zM270 287q0 -76 54.5 -118t148.5 -42q109 0 185.5 42t117.5 114.5t41 162.5v78l-352 -65q-111 -20 -153 -62.5t-42 -109.5zM289 1225l184 272h193l184 -272h-143l-154 205h33l-154 -205h-143z" />
<glyph unicode="&#xe3;" horiz-adv-x="1128" d="M90 270q0 139 82 219t260 113l385 72q0 137 -64.5 204.5t-193.5 67.5q-113 0 -178.5 -50t-89.5 -144l-182 14q31 154 148.5 249t301.5 95q209 0 319.5 -118t110.5 -324v-449q0 -37 13.5 -52t44.5 -15h43v-152q-8 -2 -27 -3t-39 -1q-74 0 -120 23.5t-66.5 73.5t-20.5 132 l21 -4q-14 -70 -69.5 -126t-137.5 -88t-174 -32q-168 0 -267.5 78t-99.5 217zM246 1235q4 119 58.5 179.5t136.5 60.5q49 0 85 -16.5t70 -45.5q33 -27 55.5 -38t47.5 -11q39 0 59.5 27.5t26.5 103.5h106q-6 -117 -59 -181.5t-141 -64.5q-39 0 -74 15.5t-70 42.5 q-35 29 -55.5 41t-50.5 12q-37 0 -60.5 -25.5t-27.5 -99.5h-107zM270 287q0 -76 54.5 -118t148.5 -42q109 0 185.5 42t117.5 114.5t41 162.5v78l-352 -65q-111 -20 -153 -62.5t-42 -109.5z" />
<glyph unicode="&#xe4;" horiz-adv-x="1128" d="M90 270q0 139 82 219t260 113l385 72q0 137 -64.5 204.5t-193.5 67.5q-113 0 -178.5 -50t-89.5 -144l-182 14q31 154 148.5 249t301.5 95q209 0 319.5 -118t110.5 -324v-449q0 -37 13.5 -52t44.5 -15h43v-152q-8 -2 -27 -3t-39 -1q-74 0 -120 23.5t-66.5 73.5t-20.5 132 l21 -4q-14 -70 -69.5 -126t-137.5 -88t-174 -32q-168 0 -267.5 78t-99.5 217zM270 287q0 -76 54.5 -118t148.5 -42q109 0 185.5 42t117.5 114.5t41 162.5v78l-352 -65q-111 -20 -153 -62.5t-42 -109.5zM301 1255v201h180v-201h-180zM657 1255v201h181v-201h-181z" />
<glyph unicode="&#xe5;" horiz-adv-x="1128" d="M90 270q0 139 82 219t260 113l385 72q0 137 -64.5 204.5t-193.5 67.5q-113 0 -178.5 -50t-89.5 -144l-182 14q31 154 148.5 249t301.5 95q209 0 319.5 -118t110.5 -324v-449q0 -37 13.5 -52t44.5 -15h43v-152q-8 -2 -27 -3t-39 -1q-74 0 -120 23.5t-66.5 73.5t-20.5 132 l21 -4q-14 -70 -69.5 -126t-137.5 -88t-174 -32q-168 0 -267.5 78t-99.5 217zM270 287q0 -76 54.5 -118t148.5 -42q109 0 185.5 42t117.5 114.5t41 162.5v78l-352 -65q-111 -20 -153 -62.5t-42 -109.5zM381 1368q0 80 54.5 134t134.5 54t134 -54t54 -134t-54 -134t-134 -54 t-134.5 54t-54.5 134zM484 1368q0 -37 24.5 -61.5t61.5 -24.5t61.5 24.5t24.5 61.5t-25 61.5t-61 24.5q-37 0 -61.5 -24.5t-24.5 -61.5z" />
<glyph unicode="&#xe6;" horiz-adv-x="1882" d="M90 270q0 115 48 182.5t127 102.5t167 47l385 51q-2 152 -63.5 222.5t-200.5 70.5q-113 0 -177.5 -55t-84.5 -139l-182 14q33 156 149.5 250t294.5 94q207 0 321.5 -113.5t114.5 -341.5l-53 -303q-16 -113 -80.5 -197.5t-166 -132t-228.5 -47.5q-162 0 -266.5 75 t-104.5 220zM270 289q0 -80 58.5 -124t177.5 -38q88 4 158.5 42t111.5 107.5t41 169.5v58l-352 -45q-123 -14 -159 -62.5t-36 -107.5zM823 543q0 172 60.5 299t170 197.5t259.5 70.5q141 0 249.5 -66.5t169 -193.5t60.5 -309v-52h-788q10 -174 93 -262t224 -88 q106 0 175 50.5t95 132.5l185 -15q-43 -145 -163 -238.5t-292 -93.5q-154 0 -265.5 70t-172 198t-60.5 300zM1004 641h600q-12 158 -91 231.5t-200 73.5q-125 0 -205.5 -76.5t-103.5 -228.5z" />
<glyph unicode="&#xe7;" horiz-adv-x="1118" d="M90 543q0 172 61.5 299t173 197.5t263.5 70.5q125 0 222 -44t158.5 -128t80.5 -205l-181 -12q-18 109 -94 167t-186 58q-150 0 -234 -107.5t-84 -295.5t84 -296t234 -108q111 0 186.5 61.5t93.5 184.5l181 -12q-18 -121 -80 -210t-159 -138.5t-222 -49.5 q-152 0 -263.5 70t-173 198t-61.5 300zM328 -291l105 41q18 -45 48.5 -65.5t82.5 -20.5q53 0 81.5 21.5t28.5 60.5t-28.5 64.5t-126.5 25.5l-58 62l78 122h131l-70 -94q100 -4 148.5 -54t48.5 -130q0 -57 -29.5 -100t-80.5 -68t-119 -25q-98 0 -157.5 46.5t-82.5 113.5z" />
<glyph unicode="&#xe8;" horiz-adv-x="1148" d="M90 543q0 172 60.5 299t170 197.5t259.5 70.5q141 0 249.5 -66.5t169 -193.5t60.5 -309v-52h-789q10 -174 93 -262t225 -88q106 0 174.5 50.5t95.5 132.5l184 -15q-43 -145 -162.5 -238.5t-291.5 -93.5q-154 0 -265.5 70t-172 198t-60.5 300zM270 641h600 q-12 158 -91 231.5t-199 73.5q-125 0 -206 -76.5t-104 -228.5zM340 1493h193l135 -262h-144z" />
<glyph unicode="&#xe9;" horiz-adv-x="1148" d="M90 543q0 172 60.5 299t170 197.5t259.5 70.5q141 0 249.5 -66.5t169 -193.5t60.5 -309v-52h-789q10 -174 93 -262t225 -88q106 0 174.5 50.5t95.5 132.5l184 -15q-43 -145 -162.5 -238.5t-291.5 -93.5q-154 0 -265.5 70t-172 198t-60.5 300zM270 641h600 q-12 158 -91 231.5t-199 73.5q-125 0 -206 -76.5t-104 -228.5zM512 1221l135 262h193l-185 -262h-143z" />
<glyph unicode="&#xea;" horiz-adv-x="1148" d="M90 543q0 172 60.5 299t170 197.5t259.5 70.5q141 0 249.5 -66.5t169 -193.5t60.5 -309v-52h-789q10 -174 93 -262t225 -88q106 0 174.5 50.5t95.5 132.5l184 -15q-43 -145 -162.5 -238.5t-291.5 -93.5q-154 0 -265.5 70t-172 198t-60.5 300zM270 641h600 q-12 158 -91 231.5t-199 73.5q-125 0 -206 -76.5t-104 -228.5zM307 1221l184 272h193l184 -272h-143l-154 205h33l-154 -205h-143z" />
<glyph unicode="&#xeb;" horiz-adv-x="1148" d="M90 543q0 172 60.5 299t170 197.5t259.5 70.5q141 0 249.5 -66.5t169 -193.5t60.5 -309v-52h-789q10 -174 93 -262t225 -88q106 0 174.5 50.5t95.5 132.5l184 -15q-43 -145 -162.5 -238.5t-291.5 -93.5q-154 0 -265.5 70t-172 198t-60.5 300zM270 641h600 q-12 158 -91 231.5t-199 73.5q-125 0 -206 -76.5t-104 -228.5zM319 1251v201h180v-201h-180zM675 1251v201h181v-201h-181z" />
<glyph unicode="&#xec;" horiz-adv-x="499" d="M2 1497h193l135 -262h-144zM164 0v1085h172v-1085h-172z" />
<glyph unicode="&#xed;" horiz-adv-x="499" d="M164 0v1085h172v-1085h-172zM174 1225l135 262h193l-185 -262h-143z" />
<glyph unicode="&#xee;" horiz-adv-x="499" d="M-31 1225l184 272h193l184 -272h-143l-154 205h33l-154 -205h-143zM164 0v1085h172v-1085h-172z" />
<glyph unicode="&#xef;" horiz-adv-x="499" d="M-19 1255v201h180v-201h-180zM164 0v1085h172v-1085h-172zM337 1255v201h181v-201h-181z" />
<glyph unicode="&#xf0;" d="M90 502q0 164 61.5 281.5t174 181t262.5 63.5q113 0 204 -48t156.5 -125t100 -165t34.5 -168q0 -260 -135 -403.5t-360 -143.5q-150 0 -262.5 63.5t-174 182.5t-61.5 281zM270 502q0 -174 84 -268.5t234 -94.5t232.5 95.5t82.5 287.5q0 158 -83 250t-232 92 q-150 0 -234 -94t-84 -268zM338 1327l41 152q195 -20 330 -99.5t218 -206t119.5 -291.5t36.5 -360l-165 17q0 262 -62.5 431t-191.5 255t-326 102zM440 1208l627 222l49 -132l-627 -221z" />
<glyph unicode="&#xf1;" horiz-adv-x="1189" d="M164 0v1085h158l6 -276l-21 18q20 96 71.5 159t124 93.5t156.5 30.5q125 0 206 -55.5t121 -148.5t40 -208v-698h-172v649q0 100 -23.5 169t-74.5 104.5t-133 35.5q-125 0 -206 -78.5t-81 -230.5v-649h-172zM272 1235q4 119 58.5 179.5t136.5 60.5q49 0 85 -16.5t70 -45.5 q33 -27 55.5 -38t47.5 -11q39 0 59.5 27.5t26.5 103.5h106q-6 -117 -59 -181.5t-141 -64.5q-39 0 -74 15.5t-70 42.5q-35 29 -55.5 41t-50.5 12q-37 0 -60.5 -25.5t-27.5 -99.5h-107z" />
<glyph unicode="&#xf2;" d="M90 543q0 174 61.5 301t174 196.5t262.5 69.5t261.5 -69.5t172.5 -196.5t61 -301q0 -172 -61 -300t-172.5 -198t-261.5 -70t-262.5 70t-174 198t-61.5 300zM270 543q0 -188 84 -296t234 -108t232.5 107.5t82.5 296.5q0 188 -83 295.5t-232 107.5q-150 0 -234 -107.5 t-84 -295.5zM340 1497h193l135 -262h-144z" />
<glyph unicode="&#xf3;" d="M90 543q0 174 61.5 301t174 196.5t262.5 69.5t261.5 -69.5t172.5 -196.5t61 -301q0 -172 -61 -300t-172.5 -198t-261.5 -70t-262.5 70t-174 198t-61.5 300zM270 543q0 -188 84 -296t234 -108t232.5 107.5t82.5 296.5q0 188 -83 295.5t-232 107.5q-150 0 -234 -107.5 t-84 -295.5zM512 1225l135 262h193l-185 -262h-143z" />
<glyph unicode="&#xf4;" d="M90 543q0 174 61.5 301t174 196.5t262.5 69.5t261.5 -69.5t172.5 -196.5t61 -301q0 -172 -61 -300t-172.5 -198t-261.5 -70t-262.5 70t-174 198t-61.5 300zM270 543q0 -188 84 -296t234 -108t232.5 107.5t82.5 296.5q0 188 -83 295.5t-232 107.5q-150 0 -234 -107.5 t-84 -295.5zM307 1225l184 272h193l184 -272h-143l-154 205h33l-154 -205h-143z" />
<glyph unicode="&#xf5;" d="M90 543q0 174 61.5 301t174 196.5t262.5 69.5t261.5 -69.5t172.5 -196.5t61 -301q0 -172 -61 -300t-172.5 -198t-261.5 -70t-262.5 70t-174 198t-61.5 300zM264 1235q4 119 58.5 179.5t136.5 60.5q49 0 85 -16.5t70 -45.5q33 -27 55.5 -38t47.5 -11q39 0 59.5 27.5 t26.5 103.5h106q-6 -117 -59 -181.5t-141 -64.5q-39 0 -74 15.5t-70 42.5q-35 29 -55.5 41t-50.5 12q-37 0 -60.5 -25.5t-27.5 -99.5h-107zM270 543q0 -188 84 -296t234 -108t232.5 107.5t82.5 296.5q0 188 -83 295.5t-232 107.5q-150 0 -234 -107.5t-84 -295.5z" />
<glyph unicode="&#xf6;" d="M90 543q0 174 61.5 301t174 196.5t262.5 69.5t261.5 -69.5t172.5 -196.5t61 -301q0 -172 -61 -300t-172.5 -198t-261.5 -70t-262.5 70t-174 198t-61.5 300zM270 543q0 -188 84 -296t234 -108t232.5 107.5t82.5 296.5q0 188 -83 295.5t-232 107.5q-150 0 -234 -107.5 t-84 -295.5zM319 1255v201h180v-201h-180zM675 1255v201h181v-201h-181z" />
<glyph unicode="&#xf7;" horiz-adv-x="1105" d="M82 524v160h942v-160h-942zM422 233q0 55 35 91t96 36t96 -35.5t35 -91.5q0 -55 -35 -91t-96 -36t-96 36t-35 91zM422 975q0 55 35 91t96 36t96 -36t35 -91t-35 -91t-96 -36t-96 36t-35 91z" />
<glyph unicode="&#xf8;" d="M90 543q0 174 61.5 301t174 196.5t262.5 69.5t261.5 -69.5t172.5 -196.5t61 -301q0 -172 -61 -300t-172.5 -198t-261.5 -70t-262.5 70t-174 198t-61.5 300zM127 -29l772 1143h147l-772 -1143h-147zM270 543q0 -188 84 -296t234 -108t232.5 107.5t82.5 296.5 q0 188 -83 295.5t-232 107.5q-150 0 -234 -107.5t-84 -295.5z" />
<glyph unicode="&#xf9;" horiz-adv-x="1177" d="M164 387v698h172v-651q0 -158 56.5 -232.5t172.5 -74.5q129 0 203 83t74 228v647h172v-1085h-164v268l27 -14q-33 -133 -125.5 -206t-231.5 -73q-162 0 -259 110t-97 302zM334 1497h193l135 -262h-144z" />
<glyph unicode="&#xfa;" horiz-adv-x="1177" d="M164 387v698h172v-651q0 -158 56.5 -232.5t172.5 -74.5q129 0 203 83t74 228v647h172v-1085h-164v268l27 -14q-33 -133 -125.5 -206t-231.5 -73q-162 0 -259 110t-97 302zM506 1225l135 262h193l-185 -262h-143z" />
<glyph unicode="&#xfb;" horiz-adv-x="1177" d="M164 387v698h172v-651q0 -158 56.5 -232.5t172.5 -74.5q129 0 203 83t74 228v647h172v-1085h-164v268l27 -14q-33 -133 -125.5 -206t-231.5 -73q-162 0 -259 110t-97 302zM301 1225l184 272h193l184 -272h-143l-154 205h33l-154 -205h-143z" />
<glyph unicode="&#xfc;" horiz-adv-x="1177" d="M164 387v698h172v-651q0 -158 56.5 -232.5t172.5 -74.5q129 0 203 83t74 228v647h172v-1085h-164v268l27 -14q-33 -133 -125.5 -206t-231.5 -73q-162 0 -259 110t-97 302zM313 1255v201h180v-201h-180zM669 1255v201h181v-201h-181z" />
<glyph unicode="&#xfd;" horiz-adv-x="1099" d="M45 1085h188l324 -905l309 905h189l-441 -1222q-31 -88 -92 -129t-170 -41h-141v151h125q57 0 85 17.5t42 56.5l39 102h-60zM475 1225l135 262h193l-185 -262h-143z" />
<glyph unicode="&#xfe;" horiz-adv-x="1218" d="M164 -307v1761h176v-506q47 78 130 120t200 42q158 0 259 -80t150 -209t49 -278q0 -150 -49 -279t-150.5 -209t-258.5 -80q-117 0 -199 41t-131 115v-438h-176zM322 543q0 -100 31.5 -193.5t101 -152t180.5 -58.5q113 0 181.5 57.5t100 150.5t31.5 196q0 109 -31.5 202 t-100 151t-181.5 58q-111 0 -180.5 -59t-101 -152.5t-31.5 -199.5z" />
<glyph unicode="&#xff;" horiz-adv-x="1099" d="M45 1085h188l324 -905l309 905h189l-441 -1222q-31 -88 -92 -129t-170 -41h-141v151h125q57 0 85 17.5t42 56.5l39 102h-60zM283 1255v201h180v-201h-180zM639 1255v201h181v-201h-181z" />
<glyph unicode="&#x152;" horiz-adv-x="2228" d="M92 725q0 225 77 396t225.5 268.5t359.5 97.5q164 0 286.5 -62.5t202.5 -177.5v207h852v-172h-676v-469h652v-168h-652v-473h692v-172h-868v205q-80 -113 -202.5 -175.5t-286.5 -62.5q-211 0 -358.5 96.5t-225.5 267.5t-78 394zM276 725q0 -172 53.5 -304t159 -207 t265.5 -75q162 0 268 75t160.5 207t54.5 304q0 170 -53.5 303t-161 210t-268.5 77q-160 0 -266.5 -77t-159 -210t-52.5 -303z" />
<glyph unicode="&#x153;" horiz-adv-x="1961" d="M90 543q0 174 61.5 301t174 196.5t262.5 69.5t261.5 -69.5t172.5 -196.5t61 -301q0 -172 -61 -300t-172.5 -198t-261.5 -70t-262.5 70t-174 198t-61.5 300zM270 543q0 -188 84 -296t234 -108t232.5 107.5t82.5 296.5q0 188 -83 295.5t-232 107.5q-150 0 -234 -107.5 t-84 -295.5zM903 543q0 172 60.5 299t170 197.5t259.5 70.5q141 0 249.5 -66.5t169 -193.5t60.5 -309v-52h-789q10 -174 93 -262t225 -88q106 0 174.5 50.5t95.5 132.5l184 -15q-43 -145 -162.5 -238.5t-291.5 -93.5q-154 0 -265.5 70t-172 198t-60.5 300zM1083 641h600 q-12 158 -91 231.5t-199 73.5q-125 0 -206 -76.5t-104 -228.5z" />
<glyph unicode="&#x178;" horiz-adv-x="1179" d="M-12 1454h209l393 -680l393 680h209l-514 -860v-594h-176v594zM321 1624v201h180v-201h-180zM677 1624v201h181v-201h-181z" />
<glyph unicode="&#x2c6;" horiz-adv-x="741" d="M90 1225l184 272h193l184 -272h-143l-154 205h33l-154 -205h-143z" />
<glyph unicode="&#x2dc;" horiz-adv-x="825" d="M90 1235q4 119 58.5 179.5t136.5 60.5q49 0 85 -16.5t70 -45.5q33 -27 55.5 -38t47.5 -11q39 0 59.5 27.5t26.5 103.5h106q-6 -117 -59 -181.5t-141 -64.5q-39 0 -74 15.5t-70 42.5q-35 29 -55.5 41t-50.5 12q-37 0 -60.5 -25.5t-27.5 -99.5h-107z" />
<glyph unicode="&#x2000;" horiz-adv-x="962" />
<glyph unicode="&#x2001;" horiz-adv-x="1925" />
<glyph unicode="&#x2002;" horiz-adv-x="962" />
<glyph unicode="&#x2003;" horiz-adv-x="1925" />
<glyph unicode="&#x2004;" horiz-adv-x="641" />
<glyph unicode="&#x2005;" horiz-adv-x="481" />
<glyph unicode="&#x2006;" horiz-adv-x="320" />
<glyph unicode="&#x2007;" horiz-adv-x="320" />
<glyph unicode="&#x2008;" horiz-adv-x="240" />
<glyph unicode="&#x2009;" horiz-adv-x="385" />
<glyph unicode="&#x200a;" horiz-adv-x="106" />
<glyph unicode="&#x2010;" horiz-adv-x="858" d="M90 516v162h678v-162h-678z" />
<glyph unicode="&#x2011;" horiz-adv-x="858" d="M90 516v162h678v-162h-678z" />
<glyph unicode="&#x2012;" horiz-adv-x="858" d="M90 516v162h678v-162h-678z" />
<glyph unicode="&#x2013;" horiz-adv-x="1210" d="M90 518v160h1030v-160h-1030z" />
<glyph unicode="&#x2014;" horiz-adv-x="1857" d="M90 518v160h1677v-160h-1677z" />
<glyph unicode="&#x2018;" horiz-adv-x="415" d="M92 936v203l123 348h102l-98 -320h105v-231h-232z" />
<glyph unicode="&#x2019;" horiz-adv-x="415" d="M92 1223v231h232v-202l-123 -348h-103l99 319h-105z" />
<glyph unicode="&#x201a;" horiz-adv-x="411" d="M90 0v231h232v-202l-123 -348h-103l99 319h-105z" />
<glyph unicode="&#x201c;" horiz-adv-x="753" d="M92 936v203l123 348h102l-98 -320h105v-231h-232zM430 936v203l123 348h102l-98 -320h105v-231h-232z" />
<glyph unicode="&#x201d;" horiz-adv-x="753" d="M92 1223v231h232v-202l-123 -348h-103l99 319h-105zM430 1223v231h232v-202l-123 -348h-103l99 319h-105z" />
<glyph unicode="&#x201e;" horiz-adv-x="749" d="M90 0v231h232v-202l-123 -348h-103l99 319h-105zM428 0v231h232v-202l-123 -348h-103l99 319h-105z" />
<glyph unicode="&#x2022;" horiz-adv-x="638" d="M90 637q0 66 27.5 116t79 78.5t122.5 28.5q72 0 123.5 -28.5t79 -79t27.5 -115.5q0 -63 -27.5 -113.5t-79 -79t-123.5 -28.5t-123 28.5t-78.5 78.5t-27.5 114z" />
<glyph unicode="&#x2026;" horiz-adv-x="1169" d="M90 0v231h232v-231h-232zM469 0v231h232v-231h-232zM848 0v231h232v-231h-232z" />
<glyph unicode="&#x202f;" horiz-adv-x="385" />
<glyph unicode="&#x2039;" horiz-adv-x="677" d="M90 489v152l287 334h211l-352 -410l352 -409h-211z" />
<glyph unicode="&#x203a;" horiz-adv-x="677" d="M90 156l352 409l-352 410h211l287 -334v-152l-287 -333h-211z" />
<glyph unicode="&#x205f;" horiz-adv-x="481" />
<glyph unicode="&#x20ac;" horiz-adv-x="1488" d="M113 481v152h821l-23 -152h-798zM113 797v151h862l-23 -151h-839zM285 725q0 166 42 305t121.5 241.5t189.5 159t245 56.5q129 0 233.5 -59.5t176 -163t102.5 -236.5l-185 -12q-33 133 -121 216t-206 83q-135 0 -227.5 -78t-139.5 -211t-47 -301q0 -166 47 -299 t139.5 -210t227.5 -77q127 0 217 94.5t119 237.5l188 -12q-25 -141 -95.5 -253t-179 -175.5t-249.5 -63.5q-135 0 -245 56.5t-188.5 158t-121.5 239.5t-43 304z" />
<glyph unicode="&#x2122;" horiz-adv-x="1830" d="M188 1339v115h580v-115h-580zM418 735v717h123v-717h-123zM864 735v719h119v-719h-119zM915 1454h113l248 -655h-45l250 655h110l-262 -719h-151zM1524 735v719h118v-719h-118z" />
<glyph unicode="&#x25fc;" horiz-adv-x="1085" d="M0 0v1085h1085v-1085h-1085z" />
</font>
</defs>
</svg>
